<svg width="723" height="212" fill="none" xmlns="http://www.w3.org/2000/svg"><g fill="#1ABED6" clip-path="url(#a)"><path d="M132.811 191.215c-.443-2.805-1.589-5.334-3.594-7.44-2.41-2.551-3.882-5.5-4.108-9.088-.261-4.119-2.622-6.834-6.36-8.279-1.228-.479-2.099-1.125-2.686-2.245-.7-1.338-1.499-2.638-2.081-4.024-.74-1.757-2.031-2.94-3.769-3.325-2.028-.457-2.921-1.689-3.368-3.501-.167-.664-.393-1.314-.492-1.987-.681-4.341-3.052-7.521-6.772-9.716-1.187-.705-1.779-1.685-2.338-2.9-1.138-2.462-2.176-5.087-3.856-7.146-2.393-2.932-5.404-5.19-9.656-3.51l-.538-.149c-.514-1.079-.98-2.281-1.63-3.375-1.588-2.651-2.627-2.885-5.29-1.349l-.365.022c-.23-.479-.479-1.008-.74-1.536-.912-1.824-1.73-3.709-2.768-5.461-.93-1.572-2.053-2.999-4.252-2.895-.56.026-1.142-.497-2.13-.962 1.105-.769 1.678-1.279 2.337-1.604 2.054-1.025 3.607-2.516 4.384-4.684.352-.976 1.007-1.518 1.887-1.789 1.079-.33 2.19-.623 3.31-.723 3.015-.271 5.014-2.069 6.481-4.436 1.513-2.439 2.628-5.113 3.098-7.995.24-1.49.5-2.845 2.036-3.753.726-.428 1.178-1.563 1.444-2.466.326-1.147.466-2.39.452-3.582-.022-2.073.497-3.807 1.986-5.352 2.727-2.805 3.499-6.274 2.863-10.082-.515-3.076-.84-6.089.303-9.165 1.358-3.64.491-6.88-2.62-9.332-.951-.75-1.304-1.576-1.141-2.727.099-.674.166-1.356.198-2.038.108-2.335.243-4.67.257-7.01 0-.64-.226-1.4-.61-1.91-2.704-3.591-4.875-4.689-8.69-3.356-.786.275-1.576.579-2.388.704-1.314.217-1.779-.207-1.919-1.531-.099-.976-.113-1.97-.312-2.927-.397-2.01-1.557-2.985-3.62-3.094a9.186 9.186 0 0 0-2.257.14c-2.28.448-4.24.069-6.09-1.504-1.3-1.116-2.907-1.892-4.447-2.696-2.677-1.4-5.435-2.647-8.094-4.08a11.515 11.515 0 0 0-5.192-1.431c-.903-.036-1.833.09-2.718-.068-2.934-.528-5.305.542-7.553 2.3-2.505 1.956-5.055 3.861-7.674 5.664-3.44 2.371-7.164 3.559-11.358 2.218l-.885-.181c-1.707-.538-3.247-.095-4.813.636-2.523 1.184-4.623 2.873-6.415 4.964-1.052 1.234-2.122 1.703-3.747.958-1.445-.655-2.28-.384-2.966.75-1.643 2.715-2.704 7.2.704 10.434.551.52 1.102 1.04 1.685 1.522 2.361 1.956 2.68 4.413 1.81 7.19-.38 1.224-.8 2.453-1.025 3.708C3.802 59.193 4.205 64 8.611 67.69c.92.768 1.706 1.73 2.442 2.687 1.318 1.713 2.312 3.533 1.712 5.86-.452 1.751-.646 3.567-1.089 5.315-.375 1.477-.375 2.81.497 4.129.312.47.533 1.142.479 1.684-.144 1.418.158 2.697.768 3.952.655 1.342.708 2.675.284 4.165-.695 2.43-.428 4.797 1.282 6.842.731.872 1.39 1.794 2.122 2.665 1.088 1.292 1.625 2.661 1.114 4.396-.577 1.96-.275 3.83.61 5.713 1.878 4.006 3.097 8.253 3.115 12.693.005 2.516.244 5.149-1.263 7.485-1.274 1.965-.547 3.947.753 5.446 1.806 2.087 2.65 4.539 3.553 7.034.424 1.179.325 2.182-.339 3.225-1.99 3.139-2.1 6.509-1.29 10.05.568 2.489 1.687 4.702 3.041 6.798.966 1.495 1.693 3.04 1.964 4.783.227 1.482.813 2.724 1.987 3.708.37.312.73.836.771 1.302.244 2.465.831 4.896.123 7.426-.723 2.569-.127 3.934 2.216 5.329 1.571.935 2.15 2.264 2.24 3.925.067 1.283-.019 2.58.045 3.862.127 2.268.817 4.314 2.623 5.832.817.687 1.698 1.391 2.853.903 1.178-.487 1.657-1.544 1.68-2.746.03-1.431-.037-2.877-.131-4.309-.163-2.497-.073-4.868 2.492-6.278l.334-.303c2.69-2.669 2.97-5.471 1.102-8.786-1.373-2.439-2-5.028-.772-7.805.482-1.093.885-2.299.97-3.482.077-1.157-.027-2.471-.527-3.483-.971-1.951-2.248-3.758-3.454-5.591-1.891-2.873-2.961-5.803-.925-9.075l.28-.618c1.931-3.527 2.103-7.051-.082-10.542-.668-1.067-.754-2.091-.004-3.166 1.395-1.979 1.12-3.957.031-5.981a26.35 26.35 0 0 1-1.657-3.722c-.867-2.439-.081-3.922 2.822-4.951 1.15 1.255 2.392 2.678 3.702 4.038 1.945 2.014 4.365 2.791 7.038 2.028 2.014-.573 3.205.262 4.185 1.744 1.042 1.581 1.927 3.261 2.997 4.815.853 1.232 1.783 2.447 2.867 3.478 1.133 1.088 2.018.944 3.15-.15 2.105-2.049 2.556-2.086 4.565.005 1.102 1.161 2.29 1.987 3.95 1.79 1.242-.154 2.032.365 2.524 1.454 1.052 2.339 2.18 4.647 3.146 7.019 1.21 2.981 3.21 3.92 6.095 2.701.415-.176.822-.379 1.246-.551 1.63-.659 1.797-.692 2.731.889a72.577 72.577 0 0 1 3.17 6.012c1.295 2.733 3.426 4.526 6.302 5.032 1.751.311 2.672 1.134 3.376 2.556.366.746.809 1.46 1.174 2.205 1.698 3.446 3.621 6.662 7.589 7.941l.758.488c1.955 1.355 3.802 2.759 3.933 5.47.135 2.693 1.236 5.122 2.239 7.579.686 1.676 1.684 3.027 3.3 3.894 1.314.709 2.208 1.766 2.731 3.194.501 1.346 1.106 2.66 1.743 3.943.889 1.78 2.505 2.887 3.638 2.588 1.179-.312 1.801-1.608 1.743-3.835-.022-.976-.524-2.059-.239-2.905.728-2.163.1-4.209-.225-6.268ZM63.934 94.883c-.47.298-1.066.42-1.62.543-1.233.288-2.52.41-3.716.808a22.505 22.505 0 0 0-3.941 1.726c-.958.546-1.883 1.273-2.573 2.118-.994 1.224-2.163 2.073-3.762 2.714-.542-.455-1.06-.993-1.67-1.404-2.673-1.803-4.288-1.933-6.424-.33-.582.438-1.264.732-2.415 1.382.217-1.427.275-2.357.515-3.238.22-.795.672-1.522.966-2.3.903-2.384.627-3.383-1.55-4.765-.893-.564-1.232-1.215-1.209-2.217.037-1.514.014-3.031.005-4.549-.009-2.236-.899-3.907-2.984-4.915-1.4-.678-1.521-1.165-1.178-2.719.216-.948.397-1.924.505-2.895.384-3.27-1.25-5.547-3.651-7.485-.411-.33-.831-.958-.817-1.44.054-2.318-.718-4.635.19-6.961.573-1.478-.362-2.661-1.364-3.614-1.57-1.482-1.756-3.28-1.368-5.222.32-1.635 1.07-2.127 2.71-1.902.446.068.916.077 1.344.204 3.72 1.125 6.65-.289 9.242-2.837.428-.424.88-.836 1.3-1.27 1.422-1.472 3.178-1.991 5.165-1.783 1.282.13 2.545.437 3.824.505 1.652.09 3.304.028 5.146.028 3.611 6.563 5.16 7.349 10.722 5.325 1.336 1.35 2.84 2.575 1.86 4.96-.447 1.097-.041 2.267.74 3.184 1.074 1.27 2.149 2.543 3.327 3.713.799.8 1.774 1.423 2.691 2.141-.587.971-.867 1.486-1.197 1.96-1.34 1.939-1.607 3.293-.148 4.965 2.013 2.298.957 4.72.839 7.136l-.284.597c-1.435 1.617-2.899 3.22-4.33 4.842-1.416 1.604-1.84 3.609-2.166 5.628-.19 1.192-.257 2.408-.447 3.605-.25 1.548-.905 2.903-2.277 3.762ZM721.508 93.37c-1.061-.515-2.076-.272-3.07.158-2.56 1.107-5.156 2.15-7.643 3.401-1.607.804-3.303 1.699-4.514 2.973-3.787 4.002-9.24 5.456-13.304 8.993l-.406.198c-3.639 1.468-7.21 3.153-10.943 4.332-3.255 1.026-6.6 1.643-8.794 4.761-.054-.813.017-1.473.243-2.078.669-1.784.361-3.428-.609-4.983-.718-1.156-1.535-2.253-2.248-3.414-.344-.556-.768-1.206-.759-1.803.037-1.486-.622-2.565-1.453-3.704-.533-.745-.971-1.752-.998-2.65-.14-4.685-.118-9.37-.208-14.048-.046-2.358-1.061-4.188-3.128-5.443-.601-.366-1.274-.999-1.449-1.63-1.256-4.577-4.009-8.683-4.217-13.583-.027-.52-.181-1.053-.366-1.54-1.49-3.885-2.921-7.792-4.541-11.617-.668-1.581-1.706-3.031-2.723-4.436-.388-.524-1.345-1.152-1.788-.994-.649.221-1.372 1.053-1.503 1.73-.234 1.234-.095 2.543-.045 3.826.126 3.917.284 7.842.437 11.826-2.465.55-3.06 2.195-2.921 4.164.19 2.634.497 5.254.795 7.873.172 1.5.556 2.982.6 4.48.082 2.95.032 5.909-.018 8.858-.053 3.306.483 6.505 1.906 9.486 1.183 2.501 1.918 5.085 2.041 7.841.068 1.432.144 2.873.099 4.305-.041 1.418.474 2.533 1.562 3.361.758.574 1.625 1.002 2.885 1.761-.984 3.573-1.892 7.237-3.012 10.84-1.069 3.46-2.519 6.78-1.529 10.593.45 1.721-.24 2.426-1.956 3.017-1.069.371-2.189.611-3.245 1.021-2.741 1.07-5.531 2.051-8.167 3.352-2.271 1.125-2.402 2.565-.795 4.548l.348.502-.262.424c-.511.316-1.034.619-1.571.894-3.427 1.775-6.194 4.332-8.637 7.259-1.656 1.987-1.683 3.325-.338 5.352 1.567 2.353 1.53 3.14-.541 5.013-2.519 2.286-5.103 4.505-7.694 6.704-1.173.998-2.167 2.069-2.708 3.56-.181.5-.618 1.101-1.083 1.269-2.746.998-4.461 3.035-5.797 5.488-1.188 2.186-2.777 3.966-4.998 5.118-1.201.618-2.51 1.039-3.688 1.698-5.269 2.95-9.594 7.105-13.901 11.243-.989.949-1.571 2.38-2.144 3.677-.601 1.341-.889 2.778.5 3.929 1.17.967 2.565.972 4.222-.004l.925-.65c3.069-2.579 6.09-5.213 9.209-7.729 1.157-.936 2.456-1.848 3.841-2.308 2.709-.903 5.512-1.549 8.311-2.177 3.025-.687 5.657-1.924 7.851-4.228 2.916-3.072 6.005-5.981 9.033-8.948.483-.47 1.003-.944 1.577-1.287 1.958-1.183 3.389-2.864 4.211-4.928 1.454-3.668 3.873-6.649 6.379-9.59 1.124-1.324 2.369-2.556 3.417-3.944.664-.876 1.273-1.9 1.536-2.958.83-3.271 2.699-5.664 5.48-7.489 3.855-2.538 7.638-5.163 11.475-7.732 1.679-1.121 2.908-2.589 3.819-4.396a17.285 17.285 0 0 1 2.119-3.197c2.334-2.823 5.326-4.567 8.861-5.606 5.67-1.667 9.701-5.397 12.252-10.687.668-1.382 1.684-2.317 2.912-3.066.83-.515 1.737-.931 2.654-1.274 2.664-1.004 4.93-2.589 7.06-4.454 1.247-1.093 2.565-2.173 4.015-2.945 4.387-2.321 8.261-5.33 11.85-8.718 2.091-1.969 4.086-4.05 6.031-6.16 1.249-1.343.892-2.64-.742-3.43Z"/><path d="M120.098 102.358c-.086-2.845.402-5.564 1.409-8.216.745-1.96 1.133-4.033.185-5.97-1.053-2.151-1.296-4.3-.876-6.595v-.908c-.118-1.739-.939-2.588-2.686-2.751-1.557-.135-2.989.216-4.307 1.097-.46.312-1.069.606-1.593.574-2.749-.167-3.774.596-3.426 3.247.37 2.873.026 5.565-.976 8.23-.158.42-.199.88-.293 1.328-.344 1.63-.118 3.021 1.593 3.795 1.088.492 1.341 1.458 1.156 2.466-.176.949-.569 1.865-.93 2.769-.614 1.545-1.373 3.035-1.9 4.602-.863 2.58-.596 4.947 1.724 6.735.907.7 1.377 1.617 1.327 2.746-.099 2.259-.104 4.531-.415 6.762-.208 1.526-.493 3.013.185 4.445.618 1.301.718 2.625.402 3.98-.384 1.662-.036 3.152.885 4.53.835 1.243 1.137 2.611 1.097 4.093-.027 1.36-.005 2.724-.005 4.087h-.063c0 1.59-.05 3.184.014 4.775.077 1.924.505 3.766 1.896 5.207 1.539 1.591 3.377 1.405 4.555-.447.311-.505.601-1.097.663-1.676.204-1.792.511-3.617.38-5.401-.303-4.319.131-8.455 2.216-12.332.356-.649.465-1.431.732-2.141 1.133-2.954.78-5.786-.686-8.527l-.212-.403c-.741-1.472-.714-2.882.189-4.309.727-1.147 1.273-2.417 2.036-3.542 1.729-2.524 1.485-5.795-1.883-7.768-1.869-1.094-2.339-2.567-2.393-4.482ZM111.385 69.728c1.77 1.446 3.833 1.97 5.95 1.202 2.185-.79 3.237-2.625 3.408-4.932.23-3.098.673-6.134 1.417-9.165.799-3.26-1.187-5.28-4.826-4.774.195-1.093.393-1.96.493-2.84.316-2.612-1.608-5.041-3.892-4.78-1.742.2-3.363.841-4.6 2.214-1.382 1.536-1.865 3.934-.731 5.66 1.016 1.527.718 2.75-.054 4.182-.79 1.46-1.539 2.973-2.022 4.545-.647 2.137-.376 4.223 1.404 5.822 1.115.997 2.297 1.922 3.453 2.866ZM584.779 108.262c-1.733.456-2.46 1.662-2.117 3.388.397 2.005 1.612 3.139 3.638 2.958 1.77-.157 3.21.475 4.773 1.067 2.352.894 4.148 3.098 7.087 2.742-.185.582-.23.975-.415 1.282-1.183 2.019-1.621 4.183-1.693 6.508-.036 1.058-.555 2.183-1.111 3.127-.744 1.274-.983 2.547-.6 3.911.303 1.088.65 2.195 1.201 3.171.655 1.16.691 2.109.126 3.364-1.205 2.711-1.53 5.53-.035 8.316.238.452.428 1.012.406 1.509-.167 3.243.095 6.616-.722 9.689-1.143 4.273-1.242 8.515-1.143 12.819.046 1.97.451 3.939 1.68 5.564 1.178 1.554 2.645 1.423 3.625-.253.226-.384.347-.835.483-1.269a515.294 515.294 0 0 0 1.955-6.499c.338-1.157.771-2.308.916-3.492.606-5.095 1.184-10.199 1.648-15.308.257-2.836.708-5.546 2.411-7.923.383-.536.727-1.214.776-1.851.163-2.178.465-4.386-.357-6.519-.379-.975-.334-1.906.185-2.827 1.553-2.768 1.702-5.732 1.323-8.804-.175-1.4-.154-2.832-.221-4.245l.551-.402c.785.366 1.72.564 2.33 1.125 2.595 2.389 5.755 2.633 8.92 2.145 1.752-.275 3.066-.004 4.406 1.008 1.734 1.313 3.724 1.992 5.905 2.077 3.065.108 4.235-.944 4.375-3.911.619-.447 1.274-.84 1.842-1.333 1.557-1.359 1.702-3.039.244-4.535a7.348 7.348 0 0 0-2.605-1.73c-1.259-.474-2.623-.733-3.964-.908-.961-.126-1.683-.452-2.32-1.197-1.241-1.468-2.899-2.136-4.807-2.168-1.431-.022-2.867-.005-4.33-.005-1.928-2.656-2.519-2.845-6.108-2.366-1.539.198-3.119.587-4.917-.199.367-1.165.606-2.353 1.102-3.411 1.49-3.18 2.496-6.509 3.119-9.932.678-3.726 1.401-7.416 3.16-10.823l.136-.433c.393-2.615.47-5.131-1.774-7.105-1.788-1.568-1.828-1.979-.641-4.03 1.214-2.095 2.537-4.132 3.639-6.283.641-1.25 1.196-2.647 1.34-4.024.28-2.769-1.616-4.354-4.397-3.911-2.488.397-3.977 1.996-4.966 4.196-.708 1.576-1.476 3.126-2.231 4.693-1.932 4.01-3.967 7.972-4.537 12.503-.202 1.622-.825 3.198-1.371 4.76-.844 2.444-1.535 4.92-1.49 7.526.027 1.78-.361 3.433-1.151 5.032-1.066 2.168-1.35 4.427-.872 6.843.538 2.711-.303 3.673-3.002 3.686-1.472.004-2.884.139-4.058 1.129-1.034.872-2.235 1.196-3.553 1.274a9.211 9.211 0 0 0-1.794.284ZM174.064 127.327c-2.704 1.947-4.47 1.965-7.21.05-.808-.564-1.571-1.192-2.388-1.735-1.431-.957-2.93-1.274-4.397-.081-.89.719-1.793.7-2.741.213-1.594-.827-3.084-.51-4.505.393-1.088.682-2.099 1.495-3.205 2.137-1.526.876-2.939.068-2.962-1.685a4.283 4.283 0 0 1 .347-1.757c.488-1.102 1.066-2.164 1.657-3.212.745-1.31 1.689-2.533 2.285-3.907 1.368-3.161.867-4.724-1.891-6.554-.312-.208-.628-.407-1.13-.732.393-2.927 2.271-4.648 4.257-6.315 2.664-2.231 5.354-4.435 7.919-6.78 1.436-1.314 2.388-2.958 1.386-5.009 1.43-.903 2.871-1.247 4.419-1.233 1.287.01 2.574.014 3.86-.036 3.251-.127 6.086-1.16 8.081-3.88.845-1.157 1.237-2.475.525-3.835-.65-1.251-1.77-1.82-3.187-1.757-2.488.107-4.98.144-7.458.366-1.124.103-2.032.113-2.831-.85-.875-1.052-2.094-1.4-3.472-1.314-3.417.221-6.505 1.369-9.119 3.564-.807.678-1.607 1.784-1.738 2.782-.32 2.52-1.702 3.695-4.026 4.115l-1.08.334c-4.523 1.296-6.017 3.135-6.636 7.742-.253 1.924-.51 3.997-1.395 5.66-1.264 2.349-1.927 4.72-2.072 7.325-.09 1.722-.758 3.208-1.932 4.49-.817.89-1.742 1.753-2.284 2.806-.713 1.377-1.327 2.891-1.576 4.417-.316 1.902.926 3.143 2.84 3.288.344.026.686.004 1.246.004-.492.846-.984 1.441-1.219 2.133-.456 1.341-.989 2.714-1.106 4.101-.185 2.168.843 3.18 3.051 3.351 1.056.086 2.117.037 3.178.059 2.204.055 2.894.782 2.466 2.94-.389 1.992.008 3.708 1.657 4.837 1.521 1.054 1.832 2.427 1.869 4.085.022 1.052.13 2.127.423 3.135.222.758.682 1.518 1.224 2.104.929 1.021 2.229 1.133 3.227.208a11.417 11.417 0 0 0 2.194-2.832c.862-1.59 1.436-3.343 2.28-4.942.668-1.255 1.449-2.485 2.365-3.563.799-.945 1.797-1.378 3.219-.841.867.329 2.099.113 3.025-.239 1.106-.42 2.158-1.129 3.042-1.924 1.539-1.396 3.178-1.779 5.214-1.441 4.673.777 8.971-2.312 9.72-6.983.157-.962-.046-2.173-.537-2.999-1.042-1.765-2.735-1.747-4.879-.203Z"/><path d="M584.111 162.668c.75-1.039.993-2.259.627-3.46-.59-1.943-1.254-3.875-2.044-5.75-1.296-3.04-2.036-6.057-1.503-9.467.834-5.366-.353-10.466-3.622-14.829-1.399-1.865-1.91-3.632-1.603-5.85.196-1.409.182-2.859-.649-4.182-1.896-3.013-3.715-6.066-6.994-7.886-1.146-.632-1.105-1.992.024-2.746.69-.457 1.512-.696 2.239-1.103 1.313-.727 2.695-1.386 3.877-2.299 1.472-1.138 3.035-1.937 4.866-2.285.709-.136 1.391-.511 2.041-.863 2.212-1.192 3.661-3.103 4.926-5.212.736-1.229 1.002-2.516.848-3.913-.099-.902-.112-1.833-.361-2.696-.352-1.21-.605-2.624-1.404-3.492-1.507-1.648-2.478-3.586-3.67-5.406-.722-1.116-.988-1.979-.207-3.266 1.151-1.888.7-3.573-.908-5.09-1.778-1.663-3.814-2.413-6.243-1.862-2.027.456-3.905-.022-5.697-.935-2.813-1.436-4.619-1.296-6.686 1.035-2.099 2.371-3.951 4.969-5.901 7.471-.307.392-.587.808-.943 1.305-1.179-1.084-1.084-2.39-1.237-3.636-.344-2.773-.623-5.56-1.179-8.288-.329-1.621-1.422-2.327-2.691-2.336-1.385-.018-2.667.976-3.088 2.539-.17.623-.099 1.319-.121 1.983-.073 1.956-.028 3.92-.23 5.867-.384 3.754-1.205 7.485-1.3 11.243-.1 4.124-.705 8.112-1.581 12.12-.293 1.358-.139 2.835-.049 4.253.113 1.825 1.2 3.013 2.767 3.876 1.95 1.066 2.416 2.39 1.581 4.507-.466 1.197-1.107 2.322-1.571 3.524-.799 2.06-.931 4.182.175 6.151 1.196 2.137 1.233 4.187.56 6.528-.528 1.842-.745 3.915-.497 5.807.32 2.44.343 4.816.049 7.223-.122.975-.238 1.983-.112 2.94.104.763.42 1.635.934 2.19 1.928 2.078 5.017 1.585 6.113-1.111.632-1.567.889-3.374.916-5.072a18.585 18.585 0 0 1 1.657-7.453c.786-1.753 1.07-3.758 1.436-5.674.216-1.156.154-2.357.202-3.211.537.398 1.205.859 1.852 1.355 3.06 2.344 5.268 5.383 7.151 8.704.705 1.242 1.525 2.485 2.537 3.473 2.167 2.115 2.994 4.603 2.849 7.575-.068 1.419-.059 2.959.428 4.247.94 2.497 1.572 5.036 2.077 7.646.47 2.39 1.409 4.649 3.25 6.373 1.937 1.814 4.578 1.565 6.109-.562Zm-17.575-65.73c-.587 1.092-1.54 1.983-2.415 3.058-.533-.375-1.011-.542-1.206-.876-.876-1.508-1.918-2.832-3.286-3.957-.501-.411-.511-1.41-.791-2.286 2.352-.546 3.653-1.793 4.447-3.771 1.35-3.338 2.104-3.681 6.627-3.252-3.323 2.244-3.3 4.923-2.587 7.927.228.953-.288 2.213-.789 3.156ZM535.708 114.901c-1.658-2.001-2.064-3.915-.949-6.247.709-1.499 1.44-3.021 1.878-4.611 1.088-3.903 1.008-7.752-.953-11.442-.409-.772-.604-1.708-.694-2.588-.208-1.874-.849-3.433-2.239-4.801-2.457-2.421-5.102-4.44-8.402-5.601-4.542-1.59-8.757-1.062-12.271 2.176-2.257 2.083-3.999 4.716-6.009 7.07-.623.726-1.3 1.472-2.094 1.978-3.517 2.236-6.257 5.04-6.944 9.341-.406 2.516-1.286 4.697-2.988 6.707-2.185 2.584-2.362 6.467-.483 8.876 2.478 3.184 2.925 6.698 2.42 10.51-.199 1.496-.293 3.004-.465 4.825.193 1.355.253 3.04.708 4.611.527 1.825 1.982 2.783 3.593 2.372 1.883-.489 3.192.383 4.615 1.274 1.133.713 2.306 1.381 3.534 1.914.723.317 1.232.651 1.612 1.396 1.214 2.38 2.703 3.175 5.386 2.657 2.058-.402 4.026-1.192 6.193-.787.478.091 1.093-.094 1.525-.351 2.203-1.307 4.723-2.323 6.475-4.089 3.123-3.148 5.976-6.625 8.568-10.239 1.548-2.159 2.691-4.707 1.969-7.67-.686-2.813-2.225-5.144-3.985-7.281Zm-16.529 7.688c1.12 2.317 1.048 2.354.823 4.634-1.396.136-2.863.276-4.168.393-1.088-1.689-2.049-3.202-3.028-4.702-.831-1.255-1.86-2.241-3.486-2.163-1.191.054-1.603-.651-1.796-1.626-.207-1.035-.379-2.082-.591-3.117-.6-2.905.081-5.448 2.303-7.417 2.171-1.925 3.042-4.133 2.55-7.06-.389-2.313 1.246-3.69 3.209-4.653-.338 1.455-.708 2.904-.993 4.368-.587 2.972.65 5.149 3.048 6.785.564.383 1.183.677 1.742 1.066 1.44.993 1.733 1.834 1.183 3.5-.257.787-.627 1.54-.943 2.313-1.053 2.58-1.098 5.114.147 7.679ZM494.201 182.478c.288-3.798-.763-7.136-2.844-10.293-2.122-3.216-3.183-6.69-1.585-10.52l.254-.872c.939-3.451.509-6.64-2.041-9.287-1.914-1.992-2.438-4.277-1.878-6.906.739-3.455.497-6.658-1.584-9.755-1.801-2.689-2.113-5.656-.681-8.836 1.209-2.669 2-5.552 2.766-8.393.596-2.213.601-4.557-.234-6.711-.678-1.758-.501-3.353-.081-5.082.447-1.825.695-3.708.939-5.574.189-1.436-.289-2.705-1.359-3.69-1.409-1.292-1.896-2.9-1.662-4.73.281-2.1.686-4.178-.41-6.201-.194-.352-.081-.894-.05-1.346.271-3.65-.65-7.047-2.081-10.354-.821-1.906-1.169-3.91-.952-5.984.415-4.024.162-8.04-.537-11.983-.754-4.241-1.942-8.397-2.835-12.616-.312-1.46-.514-2.994-.424-4.471.184-3.013.546-6.021.948-9.02.488-3.614 1.372-7.12 2.929-10.453 1.495-3.224 2.881-6.504 4.267-9.778.496-1.184.92-2.408 1.219-3.655.361-1.5.343-3.013-.564-4.377-1.205-1.81-2.795-2.15-4.375-.632-1.286 1.251-2.505 2.679-3.368 4.241-1.697 3.072-3.647 5.917-5.999 8.515-1.639 1.811-2.338 3.97-2.438 6.436-.185 4.793-1.278 9.283-4.749 12.91-.989 1.034-1.855 2.2-2.654 3.391-.804 1.184-1.648 2.408-2.105 3.74-1.087 3.14-2.27 6.301-2.825 9.562-.736 4.34-1.874 8.542-3.025 12.779-.957 3.518-2.591 6.41-5.056 8.948-1.562 1.608-2.655 3.514-3.336 5.619-.818 2.52-1.531 5.068-2.212 7.63a22.092 22.092 0 0 0-.632 3.567c-.524 5.727-.94 11.465-1.522 17.178-.14 1.355-.017 2.859-.957 4.088l-.401-.352c-1.499-2.064-1.68-4.454-1.91-6.893-.533-5.718-1.115-11.423-.885-17.182.068-1.74 0-3.483.053-5.221.046-1.423-.55-2.48-1.625-3.33-.41-.32-.834-.618-1.309-.971.086-1.07.171-2.123.253-3.17.194-2.557-.154-4.933-1.806-7.078-.591-.76-.848-1.96-.839-2.955.022-2.565.261-5.135.466-7.697.157-2.123-.606-3.848-2.087-5.306-.379-.366-.871-.664-1.142-1.093-.424-.669-1.039-1.441-.997-2.137.13-2.48.347-4.977.83-7.407.379-1.916 1.25-3.727 1.796-5.615.984-3.415 2.013-6.816 2.79-10.28.397-1.771-.483-3.009-1.973-3.68-1.427-.656-2.619-.498-3.761 1.06a95.32 95.32 0 0 0-5.471 8.32c-.736 1.269-1.039 2.823-1.368 4.287-.547 2.457-1.133 4.9-2.966 6.761-1.982 2.015-3.066 4.467-3.77 7.146-.113.443-.34.858-.601 1.5-1.237-3.189-1.742-3.5-4.424-2.86-.095-.433-.13-.89-.297-1.292-.745-1.802-2.162-2.082-3.499-.641-.56.596-1.129 1.282-1.404 2.037-1.034 2.841-2.077 5.687-2.885 8.59-.803 2.914-1.21 5.936-1.99 8.854-1.725 6.422-2.994 12.98-5.761 19.097-.339.745-.466 1.594-.618 2.407-.804 4.378-.681 8.732.243 13.082 1.106 5.175.999 10.379.19 15.583-.514 3.364-2.487 5.961-4.613 8.451-3.368 3.933-4.84 8.459-4.42 13.64.203 2.52.736 4.915 1.751 7.232 1.762 4.001 2.412 8.098.818 12.34a9.536 9.536 0 0 0-.551 2.2c-.239 1.879-.311 3.722.542 5.56.483 1.053.7 2.317.708 3.492.032 4.621-.076 9.237-.086 13.858-.004.817.149 1.658.371 2.448.312 1.147.979 2.087 2.204 2.371 1.326.307 2.139-.56 2.825-1.494 1.227-1.676 2.094-3.529 2.302-5.611.38-3.745 1.608-7.204 3.07-10.633.66-1.562.931-3.356 1.043-5.063.217-3.351-.519-6.621-1.215-9.883-.171-.799-.297-1.672-.158-2.462.691-3.888 2.177-7.489 5.134-10.144 2.433-2.199 3.444-4.684 3.025-7.854-.096-.755-.037-1.532-.195-2.268-.501-2.281-.203-4.481.307-6.73.695-3.094 1.481-6.206 1.738-9.355.429-5.227 1.322-10.339 2.551-15.417.857-3.523.871-7.02-.384-10.502-1.219-3.387-1.111-6.82.068-10.248.587-1.712.911-3.51 1.475-5.23.624-1.907 1.057-3.93 2.827-5.868.144 1.098.343 1.807.312 2.498-.122 2.267-.281 4.53-.506 6.78-.284 2.922.339 5.429 2.93 7.141 1.151.754 1.743 1.843 1.965 3.18.229 1.342.902 2.607 2.053 3.135 2.726 1.26 3.183 3.604 3.436 6.148l.068.677c.537 4.525 1.331 8.939 3.579 13.04.908 1.653 1.03 3.753 1.431 5.664.271 1.251.158 2.629.637 3.781.943 2.29.786 4.562.546 6.919-.492 5.019.862 7.919 5.304 8.8 1.098.216 1.712.885 1.816 2.019.113 1.125.261 2.249.406 3.374.379 2.936.836 5.863 2.668 8.329 1.07 1.441 2.437 2.273 4.312 1.839 1.544-.362 2.821-1.938 2.993-3.858.162-1.734.302-3.487.203-5.217-.271-4.715 1.111-8.947 3.354-13.013.642-1.161 1.147-2.498 1.327-3.808.325-2.39.438-4.819.511-7.237.13-4.362.916-8.441 4.424-11.49l.456-.506c3.151-4.318 4.934-8.984 3.828-14.44-.844-4.192-.117-8.276.998-12.313.217-.791.541-1.554.822-2.331.383.93.383 1.762.383 2.592.005 2.566.79 4.748 2.998 6.28.551.383 1.016.907 1.462 1.422 1.093 1.27 1.675 2.7 1.197 4.4a181.852 181.852 0 0 1-1.377 4.796c-.948 3.103-2.334 6.147-2.79 9.318-.645 4.499-.424 9.074 1.328 13.424.356.899.718 1.861.776 2.814.117 2.191.18 4.4.041 6.586-.483 7.371 1.525 13.911 6.288 19.576 1.237 1.464 1.345 3.004.885 4.861a47.898 47.898 0 0 0-1.246 7.787c-.221 2.81.939 5.014 3.738 6.089l.388.407c0 1.427.014 2.94-.009 4.448-.022 2.005.641 3.736 2.158 5.05 1.191 1.04 2.415 2.092 3.764 2.905 1.378.835 1.793 1.906 1.594 3.423-.19 1.423-.261 2.859-.356 4.296-.077 1.205.226 2.267 1.39 2.877 1.079.564 1.869-.091 2.677-.674l.437-.026.29.317c1.322 1.332 2.175 1.557 3.345.889 1.164-.669 1.408-1.644.983-3.343-.254-1.012-.53-2.087-.453-3.104ZM245.925 64.362c-1.621.272-3.318.407-4.822 1.012-1.805.723-3.597 1.685-5.132 2.877-4.592 3.569-9.079 7.281-13.571 10.98-1.115.922-2.086 2.056-3.698 1.902-1.39-.13-2.514.416-3.543 1.243-1.653 1.318-3.251 2.719-4.921 4.02-.768.596-1.598 1.156-2.488 1.544-1.493.66-3.056 1.17-4.609 1.748-1.042-1.838-1.128-3.758-.108-5.75.416-.803.768-1.675.912-2.556.429-2.592 1.011-5.176-.506-7.715-.455-.759-.302-1.892-.384-2.863-.108-1.274.177-2.728-.334-3.794-.858-1.775-.542-3.325.023-4.982.216-.646.452-1.288.627-1.942.782-2.887 1.034-5.814.438-8.763-.655-3.27-3.467-4.291-6.14-2.263-.483.362-.962.723-1.4 1.053-2.681-.678-3.196-.605-4.374 1.147-.528.786-.917 1.77-1.03 2.706-.148 1.34.055 2.719.027 4.082-.076 4.229.289 8.542-.42 12.661-.92 5.339-2.131 10.678-4.117 15.787-.595 1.53-.776 3.225-1.146 4.842-.348 1.54-.601 3.107-1.062 4.612-.718 2.376-1.639 4.693-2.352 7.078-.248.84-.261 1.811-.153 2.697.181 1.463 1.052 2.511 2.46 2.98 1.269.425 2.194-.234 2.966-1.16.912-1.107 1.797-2.236 2.731-3.333.402-.47.881-.873 1.327-1.306l.537.302c-.316 1.283-.654 2.571-.948 3.868-.221.948-.519 1.91-.533 2.868-.045 3.523-.542 6.879-2.424 9.982-.785 1.301-1.233 3.072.104 4.209 1.458 1.248 1.287 2.607 1.02 4.098-.835 4.692-1.684 9.376-2.569 14.056a9.853 9.853 0 0 1-.754 2.371c-1.219 2.562-1.634 5.312-2.247 8.044-.655 2.937.708 4.798 2.446 6.645 1.052 1.125 2.108 1.242 3.169.144 1.03-1.061 2.095-2.307 2.528-3.667.894-2.819 1.856-5.583 3.119-8.252.316-.678.492-1.436.65-2.168.619-2.886 1.201-5.777 1.801-8.664.564-2.732 1.134-5.461 1.779-8.545 2.411 1.129 3.575-.452 4.83-1.951.28-.343.813-.474 1.355-.769.506 1.346.762 2.579 1.404 3.564.641.98 1.679 1.707 2.523 2.561l.519.74c1.905 3.528 4.013 7.007 4.293 11.135.176 2.566 1.454 4.4 3.346 5.918 2.239 1.793 3.508 4.214 4.067 6.897.777 3.677 2.627 6.752 4.83 9.634.98 1.282 1.445 2.579 1.616 4.124.141 1.264.253 2.629.814 3.73.938 1.849 1.656 3.677 1.809 5.773.109 1.531 1.318 2.444 2.754 2.466 1.598.018 2.38-.647 2.768-2.385.067-.289.077-.596.126-1.047 2.271.036 3.395-.565 3.684-2.309.397-2.385.654-4.806-.28-7.168-.446-1.125-.812-2.281-1.191-3.432-2.221-6.758-4.356-13.519-4.726-20.728-.096-1.703-1.016-3.492-1.96-4.988-1.603-2.528-2.813-5.089-3.291-8.102-.65-4.075-2.316-5.507-6.374-6.184-1.526-.257-2.908-.727-3.869-2.092-2.181-3.093-4.424-6.142-6.627-9.209-.312-.434-.551-.908-.822-1.365-.736-1.219-1.422-2.471-2.208-3.654-1.589-2.408-.708-5.24 2.019-6.288 1.697-.646 3.404-1.251 5.096-1.901 4.821-1.847 8.167-4.982 9.417-10.208.731-3.03 2.298-5.601 5.458-6.793.637-.24 1.201-.655 1.819-.935 3.156-1.459 5.427-3.808 6.903-6.93.573-1.205 1.507-1.986 2.51-2.835 2.131-1.802 4.095-3.803 6.072-5.782.596-.592.98-1.36.501-2.263-.443-.842-1.161-1.213-2.064-1.059ZM352.782 134.248c-1.259-3.018-2.379-6.04-2.176-9.414.14-2.326-.059-4.67.027-7.001.068-1.883.141-3.799.56-5.623.745-3.235 1.724-6.423 2.659-9.613.438-1.486.344-2.895-.623-4.087-1.372-1.703-1.521-3.609-1.056-5.578.578-2.421 1.354-4.801 1.996-7.21.23-.862.491-1.77.447-2.646-.068-1.495-.66-2.878-2.14-3.487-1.581-.655-2.994-.046-4.077 1.17-.745.836-1.522 1.752-1.924 2.778-.713 1.816-1.223 3.726-1.693 5.628-.916 3.726-1.747 7.48-2.618 11.216l-.302.853c-1.779 2.746-2.397 5.836-2.813 9.012-.211 1.647-1.083 2.733-2.631 3.649-2.239 1.333-4.325 3.027-6.19 4.855-1.77 1.732-3.187 3.822-4.749 5.76.045-1.323-.026-2.666.204-3.947.803-4.454 1.733-8.89 2.595-13.343.429-2.223.895-4.454 1.174-6.699.14-1.17.123-2.452-.212-3.568-.415-1.378-1.255-2.656-2.948-2.76-1.611-.108-2.713.772-3.49 2.106-.262.456-.492.94-.691 1.427-1.986 4.928-3.959 9.86-6.072 15.123-.704-3.216-2.018-5.552-5.625-4.724-1.264-2.101-1.575-4.283-2.004-6.419-.343-1.694-1.151-3.103-2.329-4.336-.912-.954-2.067-.954-3.161-.551-1.114.416-1.864 1.215-1.864 2.57 0 1.125-.176 2.249-.258 3.378-.136 1.874-.361 3.754-.37 5.628a50.377 50.377 0 0 0 .339 5.886c.338 2.918-1.445 4.833-2.971 7.155-.754-1.536-1.508-2.773-1.986-4.115-.326-.898-.181-1.95-.389-2.904-.329-1.472-.826-2.905-1.16-4.377-.379-1.685-.686-3.388-.975-5.082-.14-.821-.099-1.666-.248-2.479-.723-3.93-1.847-7.787-1.861-11.839a15.201 15.201 0 0 0-.509-3.794c-.371-1.377-1.396-2.105-2.443-1.866-1.341.312-2.686.764-3.409 2.05-.73 1.31-1.412 2.67-1.927 4.079-.542 1.487-.863 3.053-1.268 4.59-.28 1.074-.881 1.738-2.072 1.68-2.181-.1-3.278 1.268-4.054 3.026-.546 1.247-.934 2.565-1.567 3.767-1.666 3.193-2.086 6.441-.708 9.842.469 1.161.577 2.344.14 3.537-1.504 4.105-2.226 8.505-4.664 12.268-.483.745-.907 1.648-.979 2.516-.127 1.468-.469 3.289.203 4.39 1.215 1.956 1.445 3.899 1.386 6.031-.018.447.045.916.15 1.35.352 1.391 1.444 2.384 2.64 2.448 1.318.063 2.131-.614 2.623-2.322.365-1.246.803-2.398 1.774-3.346 1.13-1.112 1.369-2.576.813-4.007-.447-1.174-.109-2.046.537-2.941.488-.673 1.07-1.3 1.454-2.023.37-.708.763-1.518.758-2.281-.022-2.547 1.345-4.363 2.817-6.337.515.393.822.768 1.215.908 1.801.618 2.442 2.114 2.943 3.726.709 2.313 1.255 4.685 2.14 6.924 1.21 3.086 2.664 6.072 4.036 9.098l.56.708c.75.795 1.629 1.011 2.681.655 1.386-.457 2.217-1.401 2.226-2.828.009-3.017-.094-6.039-.176-9.06-.045-1.69-.158-3.384-.248-5.335 1.594.85 2.221 1.817 2.086 3.271-.064.673.054 1.373-.05 2.037-.411 2.61 1.286 4.042 2.993 5.456.655.538 1.467.547 2.09-.032 1.617-1.508 3.201-3.053 2.89-5.596-.086-.659-.104-1.377.059-2.014.627-2.444.398-4.793-.555-7.097-.317-.759-.456-1.486.018-2.412 1.101 1.004 2.247 1.712 2.921 2.738 1.584 2.385 2.983 4.896 4.365 7.407 1.093 1.983 2.018 4.052 3.079 6.053.555 1.043 1.377 1.869 2.686 1.747 1.327-.126 2.216-.839 2.586-2.186.23-.844.569-1.657.903-2.61l.294.325.09.669c.185 3.089 1.86 4.991 4.69 6.035.989.361 1.955.795 2.867 1.306 3.702 2.072 7.895 1.299 10.537-1.984.416-.514.808-1.047 1.395-1.811.249 1.148.447 2.019.614 2.891.433 2.155 1.485 3.966 3.057 5.461 1.481 1.409 3.498 1.513 5.196.362 1.494-1.017 2.284-2.327 2.126-4.21-.287-3.359-1.118-6.557-2.404-9.651Zm-72.141-20.227c1.314-3.501 2.551-6.78 3.783-10.064l.587.149c0 1.725-.248 3.496.068 5.163.298 1.535 1.205 2.959 1.977 4.751h-6.415v.001Zm59.058 17.119c-.763.632-1.336 1.495-2.059 2.191-1.237 1.201-2.785.988-3.029-.597-.23-1.467.167-3.053.411-4.566.239-1.483.853-2.544 2.487-3.199 1.459-.596 2.61-1.946 4.294-3.266.379 3.651.974 6.875-2.104 9.437ZM627.142 189.985v.435h-1.25v3.261h-.505v-3.261h-1.252v-.435M627.486 189.985h.713l1.07 3.122 1.061-3.122h.709v3.696h-.47v-2.163l.005-.398v-.556l-1.061 3.117h-.493l-1.087-3.117v.109l.026.415v2.593h-.473"/></g><defs><clipPath id="a"><path fill="#fff" d="M0 0h723v212H0z"/></clipPath></defs></svg>